<svg id="contents" xmlns="http://www.w3.org/2000/svg" viewBox="0 0 419.84 567.95"><defs><style>.cls-1{fill:#898989;}</style></defs><path class="cls-1" d="M209.92,0h0C94,0,0,94,0,209.92a209.25,209.25,0,0,0,17.11,83.15c5.09,11.79,19.24,35.19,19.75,36C80.14,399,126.26,470.6,171.2,542.22,182,559.37,196,568,209.92,568h0c14,0,27.94-8.58,38.72-25.73C293.58,470.6,339.7,399,383,329.08c.51-.82,14.65-24.22,19.74-36a209.08,209.08,0,0,0,17.12-83.15C419.84,94,325.85,0,209.92,0Zm0,300.64A89.65,89.65,0,1,1,299.56,211,89.64,89.64,0,0,1,209.92,300.64Z"/></svg>